<?xml version="1.0" encoding="UTF-8"?>
<svg width="40px" height="40px" viewBox="0 0 40 40" version="1.1" xmlns="http://www.w3.org/2000/svg" xmlns:xlink="http://www.w3.org/1999/xlink">
    <!-- Generator: Sketch 47.1 (45422) - http://www.bohemiancoding.com/sketch -->
    <title>Group</title>
    <desc>Created with Sketch.</desc>
    <defs></defs>
    <g id="Page-1" stroke="none" stroke-width="1" fill="none" fill-rule="evenodd">
        <g id="soidjf-copy-5" transform="translate(-273.000000, -105.000000)">
            <g id="Group" transform="translate(273.000000, 105.000000)">
                <circle id="Oval-4" fill="#F7625A" cx="20" cy="20" r="20"></circle>
                <path d="M28.0300256,13.017549 L27.9348552,13.017549 C27.2402736,13.017549 26.6776328,13.5750528 26.6776328,14.269364 L26.226655,19.9125352 C25.881392,19.6992129 25.4017549,19.5121166 25.4017549,19.3512462 L25.4017549,10.5382524 C25.4017549,9.84475231 24.9970104,9.29346705 24.3035103,9.29346705 L24.2080695,9.29346705 C23.5142991,9.29346705 22.9511175,9.85015972 22.9511175,10.5444709 L22.5014915,18.6937054 C22.1375729,18.6439572 22.6082878,18.6023202 21.6771321,18.5769054 L21.6771321,7.92998909 C21.6771321,7.23513714 21.2710358,6.5 20.5775357,6.5 L20.4826357,6.5 C19.7877837,6.5 19.225954,7.14942972 19.225954,7.84320018 L18.7752466,18.5333757 C18.3937539,18.5587905 17.9530501,18.6407128 17.9530501,18.6907313 L17.9530501,9.4200004 C17.9530501,8.72622994 17.5450612,7.43115568 16.85075,7.43115568 L16.7561203,7.43115568 C16.0620795,7.43115568 15.4991683,8.35933729 15.4991683,9.05391887 C15.4991683,9.05391887 15.0976683,22.3185614 14.6207349,22.6857244 C14.4768978,22.7952245 14.3303571,22.9690726 14.1827348,23.0347726 L11.4046789,17.8190571 C11.1772974,17.1623274 10.460275,16.8392348 9.80516754,17.0663459 L9.71486383,17.108794 C9.05975633,17.3359052 8.71314147,18.0586053 8.94052298,18.7142535 L11.9302789,26.5184953 C12.7032679,30.4940218 16.2586388,33.5 20.5299505,33.5 C25.2443993,33.5 29.0060628,29.8413476 29.1972146,25.2545137 C29.1999184,25.2261248 29.1263776,14.264227 29.1263776,14.264227 C29.1263776,13.5699158 28.7243368,13.017549 28.0300256,13.017549 Z" id="Shape" fill="#FFFFFF" fill-rule="nonzero"></path>
                <path d="M9,31.2745623 L31.1402525,9.1343098" id="Path-3" stroke="#F7625A" stroke-width="5"></path>
            </g>
        </g>
    </g>
</svg>