<?xml version="1.0" encoding="UTF-8"?>
<svg width="20px" height="20px" viewBox="0 0 20 20" version="1.1" xmlns="http://www.w3.org/2000/svg" xmlns:xlink="http://www.w3.org/1999/xlink">
    <!-- Generator: Sketch 42 (36781) - http://www.bohemiancoding.com/sketch -->
    <title>Search</title>
    <desc>Created with Sketch.</desc>
    <defs></defs>
    <g id="Brian" stroke="none" stroke-width="1" fill="none" fill-rule="evenodd" opacity="0.400000006">
        <g id="Desktop-HD-Copy-16" transform="translate(-158.000000, -24.000000)" fill="#000000">
            <g id="Search" transform="translate(158.000000, 24.000000)">
                <path d="M12.7484615,2.76 C15.2784615,2.76 17.3361538,4.81846154 17.3361538,7.34846154 C17.3361538,9.87846154 15.2784615,11.9369231 12.7484615,11.9369231 C10.2184615,11.9369231 8.16,9.87846154 8.16,7.34846154 C8.16,4.81846154 10.2184615,2.76 12.7484615,2.76 M12.7484615,0.745384615 C9.10153846,0.745384615 6.14461538,3.70153846 6.14461538,7.34846154 C6.14461538,10.9953846 9.10153846,13.9523077 12.7484615,13.9523077 C16.3946154,13.9523077 19.3515385,10.9953846 19.3515385,7.34846154 C19.3515385,3.70153846 16.3946154,0.745384615 12.7484615,0.745384615" id="Fill-1"></path>
                <polyline id="Fill-2" points="2.26846154 19.9815385 0.252307692 18.0092308 6.22923077 11.8969231 8.24538462 13.87 2.26846154 19.9815385"></polyline>
            </g>
        </g>
    </g>
</svg>