<?xml version="1.0" encoding="UTF-8"?>
<svg width="20px" height="20px" viewBox="0 0 20 20" version="1.1" xmlns="http://www.w3.org/2000/svg" xmlns:xlink="http://www.w3.org/1999/xlink">
    <!-- Generator: Sketch 48.2 (47327) - http://www.bohemiancoding.com/sketch -->
    <title>Search</title>
    <desc>Created with Sketch.</desc>
    <defs></defs>
    <g id="Artboard" stroke="none" stroke-width="1" fill="none" fill-rule="evenodd" transform="translate(-1212.000000, -427.000000)">
        <g id="Group-31" transform="translate(1192.000000, 407.000000)" fill="#666666">
            <g id="Search" transform="translate(20.000000, 20.000000)">
                <path d="M12.9792614,2.76 C15.5550648,2.76 17.6500099,4.81846154 17.6500099,7.34846154 C17.6500099,9.87846154 15.5550648,11.9369231 12.9792614,11.9369231 C10.4034579,11.9369231 8.30772972,9.87846154 8.30772972,7.34846154 C8.30772972,4.81846154 10.4034579,2.76 12.9792614,2.76 M12.9792614,0.745384615 C9.26631392,0.745384615 6.25585831,3.70153846 6.25585831,7.34846154 C6.25585831,10.9953846 9.26631392,13.9523077 12.9792614,13.9523077 C16.6914257,13.9523077 19.7018813,10.9953846 19.7018813,7.34846154 C19.7018813,3.70153846 16.6914257,0.745384615 12.9792614,0.745384615" id="Fill-1"></path>
                <polyline id="Fill-2" points="2.30953007 19.9815385 0.256875504 18.0092308 6.34200559 11.8969231 8.39466015 13.87 2.30953007 19.9815385"></polyline>
            </g>
        </g>
    </g>
</svg>