<?xml version="1.0" encoding="UTF-8"?>
<svg width="25px" height="22px" viewBox="0 0 25 22" version="1.1" xmlns="http://www.w3.org/2000/svg" xmlns:xlink="http://www.w3.org/1999/xlink">
    <!-- Generator: Sketch 48.1 (47250) - http://www.bohemiancoding.com/sketch -->
    <title>Group 13</title>
    <desc>Created with Sketch.</desc>
    <defs></defs>
    <g id="desktop---1024px-copy-9" stroke="none" stroke-width="1" fill="none" fill-rule="evenodd" transform="translate(-743.000000, -367.000000)">
        <g id="Group-13" transform="translate(743.000000, 368.000000)">
            <path d="M7.66992375,17.7418449 C9.39399299,19.1531946 11.5981055,20 14,20 C19.5228475,20 24,15.5228475 24,10 C24,4.4771525 19.5228475,0 14,0 C8.4771525,0 4,4.4771525 4,10" id="Oval" stroke="#0FDB83" stroke-width="2"></path>
            <polygon id="Triangle" fill="#0FDB83" points="4 14.8 0 10 8 10"></polygon>
            <path d="M11,11.3926499 L12.6247582,11.3926499 C12.6382979,12.4622824 13.139265,13.1121857 14.0464217,13.2882012 L14.0464217,10.377176 C12.1914894,9.94390716 11.1489362,9.15860735 11.1489362,7.73694391 C11.1489362,6.30174081 12.3133462,5.28626692 14.0464217,5.13733075 L14.0464217,4 L14.9806576,4 L14.9806576,5.13733075 C16.6866538,5.29980658 17.729207,6.35589942 17.7562863,8.03481625 L16.1586074,8.03481625 C16.1586074,7.18181818 15.6576402,6.6131528 14.9806576,6.42359768 L14.9806576,9.11798839 C16.9303675,9.59187621 18,10.2823985 18,11.7852998 C18,13.3288201 16.794971,14.4255319 14.9806576,14.5609284 L14.9806576,15.8201161 L14.0464217,15.8201161 L14.0464217,14.5609284 C12.1373308,14.384913 11,13.2611219 11,11.3926499 Z M16.3346228,12.0019342 C16.3346228,11.311412 15.8742747,10.9323017 14.9806576,10.6344294 L14.9806576,13.3152805 C15.8201161,13.1934236 16.3346228,12.7059961 16.3346228,12.0019342 Z M12.8007737,7.57446809 C12.8007737,8.22437137 13.2205029,8.58994197 14.0464217,8.86073501 L14.0464217,6.36943907 C13.3423598,6.49129594 12.8007737,6.91102515 12.8007737,7.57446809 Z" id="$" fill="#0FDB83"></path>
        </g>
    </g>
</svg>