<?xml version="1.0" encoding="UTF-8"?>
<svg width="112px" height="38px" viewBox="0 0 112 38" version="1.1" xmlns="http://www.w3.org/2000/svg" xmlns:xlink="http://www.w3.org/1999/xlink">
    <!-- Generator: Sketch 48.1 (47250) - http://www.bohemiancoding.com/sketch -->
    <title>Group 7</title>
    <desc>Created with Sketch.</desc>
    <defs></defs>
    <g id="desktop---1024px-copy-10" stroke="none" stroke-width="1" fill="none" fill-rule="evenodd" transform="translate(-182.000000, -23.000000)">
        <g id="Group-7" transform="translate(182.000000, 23.000000)" fill="#FFFFFF">
            <path d="M2.80632768,2.5806776 L109.233326,2.5806776 L109.233326,35.3707322 L64.1878117,35.3707322 L64.1878117,29.9666339 L61.6632768,29.9666339 L61.6632768,35.3707322 L2.80632768,35.3707322 L2.80632768,2.5806776 L2.80632768,2.5806776 Z M0.19299435,37.9433115 L111.846448,37.9433115 L111.846448,0.00809836066 L0.19299435,0.00809836066 L0.19299435,37.9433115 Z" id="Fill-1"></path>
            <path d="M22.8382976,12.2281093 L19.9767081,12.2281093 L14.9999849,24.8422404 L17.8605198,24.8422404 L19.1671864,21.3441639 L23.6655367,21.3441639 L24.9538531,24.8422404 L27.8158644,24.8422404 L22.8382976,12.2281093 L22.8382976,12.2281093 Z M19.9374765,19.033847 L21.4061318,15.0806011 L22.8602335,19.033847 L19.9374765,19.033847 L19.9374765,19.033847 Z" id="Fill-2"></path>
            <polyline id="Fill-3" points="47.6885876 12.2281093 47.6885876 14.7329945 52.1694313 14.7329945 52.1694313 24.8422404 54.8650245 24.8422404 54.8650245 14.7329945 59.3635857 14.7329945 59.3635857 12.2281093 47.6885876 12.2281093"></polyline>
            <polyline id="Fill-4" points="93.5512166 12.2281093 90.3118644 17.6072896 87.0914953 12.2281093 83.9586591 12.2281093 88.9746139 20.2116393 88.9746139 24.8422404 91.6685198 24.8422404 91.6685198 20.2116393 96.6840527 12.2281093 93.5512166 12.2281093"></polyline>
            <path d="M78.5936271,18.1997158 C77.7598493,17.5996066 76.618968,17.3242623 75.6116008,17.0806885 C75.4023653,17.0300219 75.1979812,16.9814317 75.0001356,16.9299344 L74.8754802,16.8985792 C74.0552015,16.6954973 72.9307721,16.416623 72.9307721,15.4510492 C72.9307721,14.4188197 74.1518041,14.1440984 74.8725273,14.1440984 C75.690275,14.1440984 76.7170471,14.384765 76.9680452,15.5363934 L76.9762712,15.575224 L79.5147269,15.575224 L79.5132505,15.5251803 C79.4278267,13.1972131 77.7701846,11.8618142 74.9678644,11.8618142 C72.8801507,11.8618142 70.4429379,12.8217814 70.4429379,15.5264262 C70.4429379,18.3417486 72.9862448,18.944765 75.2300414,19.476765 C75.4354802,19.5255628 75.638177,19.5733224 75.8356008,19.6229508 C76.979435,19.9171913 77.5590508,20.4400546 77.5590508,21.1772131 C77.5590508,22.7628306 75.4496121,22.842776 75.0252354,22.842776 C73.5426591,22.842776 72.7367232,22.2981093 72.4903653,21.1294536 L72.4825612,21.0914536 L69.9052957,21.0914536 L69.9076158,21.140459 C69.9268098,22.1405027 70.0499887,22.7499563 70.7034275,23.5062186 C71.9419661,24.9296612 73.90629,25.1420874 74.9678644,25.1420874 C77.4154124,25.1420874 80.0492053,23.8897486 80.0492053,21.1385902 C80.0492053,19.9703497 79.4913145,18.8434317 78.5936271,18.1997158" id="Fill-5"></path>
            <path d="M41.6625235,19.477388 C42.6407834,18.7738689 43.2486629,17.5292131 43.2486629,16.2286995 C43.2486629,14.8229071 42.5140188,13.5172022 41.3315857,12.8234426 C40.3297024,12.2281093 39.3162185,12.2281093 38.3360603,12.2281093 L32.5624708,12.2281093 L32.5624708,24.8422404 L35.2759925,24.8422404 L35.2759925,18.6065027 L40.3105085,24.8422404 L43.5968964,24.8422404 L39.7633748,20.2139235 C40.4497175,20.097224 41.0211073,19.9387869 41.6625235,19.477388 M35.2759925,18.0356721 L35.2759925,14.6048743 L38.3242486,14.604459 C38.9298079,14.604459 39.4670282,14.6297923 39.8998418,14.938153 C40.3092429,15.2321858 40.5528588,15.7496503 40.5528588,16.3204809 C40.5528588,17.4588197 39.7283616,18.0356721 38.1021469,18.0356721 L35.2759925,18.0356721" id="Fill-6"></path>
        </g>
    </g>
</svg>