<?xml version="1.0" encoding="UTF-8"?>
<svg width="25px" height="25px" viewBox="0 0 25 25" version="1.1" xmlns="http://www.w3.org/2000/svg" xmlns:xlink="http://www.w3.org/1999/xlink">
    <!-- Generator: Sketch 48.1 (47250) - http://www.bohemiancoding.com/sketch -->
    <title>Shape</title>
    <desc>Created with Sketch.</desc>
    <defs></defs>
    <g id="desktop---1024px-copy-10" stroke="none" stroke-width="1" fill="none" fill-rule="evenodd" transform="translate(-812.000000, -30.000000)">
        <path d="M822.773989,54.0038798 C822.523063,54.7614483 821.718006,55.1733232 820.989606,54.9284549 L820.284424,54.691392 C819.549862,54.4444523 819.138058,53.6249558 819.365509,52.8580419 L819.380221,52.8084377 C819.60728,52.0428461 819.284282,51.0402031 818.657537,50.5680326 L818.894966,50.7469046 C818.26878,50.2751545 817.243451,50.2690432 816.615302,50.7256435 L816.574299,50.7554484 C815.941461,51.2154562 815.056266,51.0587691 814.605673,50.4175929 L814.169444,49.7968549 C813.71504,49.1502545 813.852352,48.2325463 814.465912,47.7550554 L814.505962,47.723887 C815.124101,47.2428326 815.431488,46.2351334 815.192054,45.4716093 L815.282759,45.7608546 C815.043538,44.9980103 814.21719,44.3689805 813.44985,44.3560918 L813.399761,44.3552505 C812.626694,44.3422657 812,43.6767828 812,42.8838356 L812,42.1161644 C812,41.3165092 812.632421,40.6576381 813.399761,40.6447495 L813.44985,40.6439082 C814.222917,40.6309233 815.043325,40.0026695 815.282759,39.2391454 L815.192054,39.5283907 C815.431275,38.7655465 815.119522,37.753604 814.505962,37.276113 L814.465912,37.2449446 C813.847773,36.7638902 813.718851,35.8443214 814.169444,35.2031451 L814.605673,34.5824071 C815.060078,33.9358068 815.946149,33.7879513 816.574299,34.2445516 L816.615302,34.2743565 C817.248139,34.7343643 818.268222,34.7252659 818.894966,34.2530954 L818.657537,34.4319674 C819.283724,33.9602174 819.607672,32.9584762 819.380221,32.1915623 L819.365509,32.1419581 C819.13845,31.3763665 819.556024,30.5534762 820.284424,30.308608 L820.989606,30.0715451 C821.724168,29.8246053 822.52263,30.2372432 822.773989,30.9961202 L822.790247,31.0452046 C823.041172,31.8027731 823.871698,32.4169037 824.646819,32.4169037 L824.353181,32.4169037 C825.127612,32.4169037 825.958394,31.8040815 826.209753,31.0452046 L826.226011,30.9961202 C826.476937,30.2385517 827.281994,29.8266768 828.010394,30.0715451 L828.715576,30.308608 C829.450138,30.5555477 829.861942,31.3750442 829.634491,32.1419581 L829.619779,32.1915623 C829.39272,32.9571539 829.715718,33.9597969 830.342463,34.4319674 L830.105034,34.2530954 C830.73122,34.7248455 831.756549,34.7309568 832.384698,34.2743565 L832.425701,34.2445516 C833.058539,33.7845438 833.943734,33.9412309 834.394327,34.5824071 L834.830556,35.2031451 C835.28496,35.8497455 835.147648,36.7674537 834.534088,37.2449446 L834.494038,37.276113 C833.875899,37.7571674 833.568512,38.7648666 833.807946,39.5283907 L833.717241,39.2391454 C833.956462,40.0019897 834.78281,40.6310195 835.55015,40.6439082 L835.600239,40.6447495 C836.373306,40.6577343 837,41.3232172 837,42.1161644 L837,42.8838356 C837,43.6834908 836.367579,44.3423619 835.600239,44.3552505 L835.55015,44.3560918 C834.777083,44.3690767 833.956675,44.9973305 833.717241,45.7608546 L833.807946,45.4716093 C833.568725,46.2344535 833.880478,47.246396 834.494038,47.723887 L834.534088,47.7550554 C835.152227,48.2361098 835.281149,49.1556786 834.830556,49.7968549 L834.394327,50.4175929 C833.939922,51.0641932 833.053851,51.2120487 832.425701,50.7554484 L832.384698,50.7256435 C831.751861,50.2656357 830.731778,50.2747341 830.105034,50.7469046 L830.342463,50.5680326 C829.716276,51.0397826 829.392328,52.0415238 829.619779,52.8084377 L829.634491,52.8580419 C829.86155,53.6236335 829.443976,54.4465238 828.715576,54.691392 L828.010394,54.9284549 C827.275832,55.1753947 826.47737,54.7627568 826.226011,54.0038798 L826.209753,53.9547954 C825.958828,53.1972269 825.128302,52.5830963 824.353181,52.5830963 L824.646819,52.5830963 C823.872388,52.5830963 823.041606,53.1959185 822.790247,53.9547954 L822.773989,54.0038798 Z M824.5,48.7928817 C827.856642,48.7928817 830.577737,45.9754625 830.577737,42.5 C830.577737,39.0245375 827.856642,36.2071183 824.5,36.2071183 C821.143358,36.2071183 818.422263,39.0245375 818.422263,42.5 C818.422263,45.9754625 821.143358,48.7928817 824.5,48.7928817 Z" id="Shape" fill="#FFFFFF" fill-rule="nonzero"></path>
    </g>
</svg>